<?xml version="1.0" encoding="UTF-8" standalone="no"?><!DOCTYPE svg PUBLIC "-//W3C//DTD SVG 1.1//EN" "http://www.w3.org/Graphics/SVG/1.1/DTD/svg11.dtd"><svg width="100%" height="100%" viewBox="0 0 400 400" version="1.1" xmlns="http://www.w3.org/2000/svg" xmlns:xlink="http://www.w3.org/1999/xlink" xml:space="preserve" xmlns:serif="http://www.serif.com/" style="fill-rule:evenodd;clip-rule:evenodd;stroke-linejoin:round;stroke-miterlimit:2;"><rect id="Artboard1" x="0" y="0" width="400" height="400" style="fill:none;"/><path d="M381.921,101.218c0,-4.674 -3.795,-8.47 -8.469,-8.47l-346.904,0c-4.674,0 -8.469,3.796 -8.469,8.47l-0,39.525c-0,4.675 3.795,8.47 8.469,8.47l346.904,-0c4.674,-0 8.469,-3.795 8.469,-8.47l0,-39.525Z" style="fill:#fff;"/><path d="M381.921,180.238c0,-4.675 -3.795,-8.47 -8.469,-8.47l-346.904,-0c-4.674,-0 -8.469,3.795 -8.469,8.47l-0,39.524c-0,4.675 3.795,8.47 8.469,8.47l346.904,0c4.674,0 8.469,-3.795 8.469,-8.47l0,-39.524Z" style="fill:#fff;"/><path d="M381.921,259.257c0,-4.675 -3.795,-8.47 -8.469,-8.47l-346.904,0c-4.674,0 -8.469,3.795 -8.469,8.47l-0,39.525c-0,4.674 3.795,8.47 8.469,8.47l346.904,-0c4.674,-0 8.469,-3.796 8.469,-8.47l0,-39.525Z" style="fill:#fff;"/></svg>