<?xml version="1.0" encoding="UTF-8" standalone="no"?><!DOCTYPE svg PUBLIC "-//W3C//DTD SVG 1.1//EN" "http://www.w3.org/Graphics/SVG/1.1/DTD/svg11.dtd"><svg width="100%" height="100%" viewBox="0 0 400 400" version="1.1" xmlns="http://www.w3.org/2000/svg" xmlns:xlink="http://www.w3.org/1999/xlink" xml:space="preserve" xmlns:serif="http://www.serif.com/" style="fill-rule:evenodd;clip-rule:evenodd;stroke-linejoin:round;stroke-miterlimit:2;"><rect id="Artboard1" x="0" y="0" width="400" height="400" style="fill:none;"/><path d="M200,305.247c-1.481,-0.001 -4.446,-3.238 -4.446,-3.238l-172.279,-203.133c0,-0 -2.853,-3.064 -1.7,-4.656c1.167,-1.613 4.519,-1.472 4.519,-1.472l69.203,0c0,0 3.732,-0.108 5.046,0.567c1.395,0.716 3.076,2.99 3.076,2.99l93.889,116.131c0,0 1.761,2.326 2.692,2.326c0.931,-0 2.895,-2.326 2.895,-2.326l101.638,-116.9c0,-0 1.675,-1.756 2.761,-2.221c1.087,-0.464 3.758,-0.567 3.758,-0.567l63.713,0c1.324,0 2.906,0.553 3.604,1.85c0.645,1.198 -1.07,3.637 -1.644,4.278l-172.279,203.133c0,-0 -2.833,3.24 -4.446,3.238Z" style="fill:#fff;"/></svg>