<?xml version="1.0" encoding="UTF-8" standalone="no"?><!DOCTYPE svg PUBLIC "-//W3C//DTD SVG 1.1//EN" "http://www.w3.org/Graphics/SVG/1.1/DTD/svg11.dtd"><svg width="100%" height="100%" viewBox="0 0 400 400" version="1.1" xmlns="http://www.w3.org/2000/svg" xmlns:xlink="http://www.w3.org/1999/xlink" xml:space="preserve" xmlns:serif="http://www.serif.com/" style="fill-rule:evenodd;clip-rule:evenodd;stroke-linejoin:round;stroke-miterlimit:2;"><rect id="Artboard1" x="0" y="0" width="400" height="400" style="fill:none;"/><path d="M155.928,375l-43.428,0c-48.293,0 -87.5,-39.207 -87.5,-87.5l0,-175c0,-48.293 39.207,-87.5 87.5,-87.5l175,0c48.293,0 87.5,39.207 87.5,87.5l0,175c0,48.293 -39.207,87.5 -87.5,87.5l-38.532,0c-7.131,-11.456 -5.121,-30.669 -5.209,-43.972c-0.15,-22.654 -1.02,-30.787 -10.446,-44.134c33.541,-3.868 54.852,-16.906 65.114,-36.262c11.969,-22.575 16.61,-72.507 -7.863,-93.284c4.204,-13.956 5.495,-31.974 0,-46.66c-18.829,-1.104 -35.748,5.253 -50.059,16.87c-27.672,-7.609 -54.656,-8.098 -83.15,0c-15,-11.398 -31.234,-17.302 -48.891,-16.87c-5.831,14.87 -6.269,30.478 -1.8,46.66c-24.141,27.836 -17.912,73.294 -3.776,95.339c11.583,18.064 32.849,32.092 65.54,34.889l-10.697,22.997c-9.704,3.879 -19.804,6.002 -29.218,2.884c-19.296,-6.392 -26.056,-40.873 -57.942,-31.543c31.257,8.325 25.57,41.31 44.916,50.462c12.323,5.831 28.159,6.796 44.073,5.038c0.185,16.355 1.297,29.038 -3.632,37.586Z" style="fill:#fff;"/></svg>