<?xml version="1.0" encoding="UTF-8" standalone="no"?><!DOCTYPE svg PUBLIC "-//W3C//DTD SVG 1.1//EN" "http://www.w3.org/Graphics/SVG/1.1/DTD/svg11.dtd"><svg width="100%" height="100%" viewBox="0 0 400 400" version="1.1" xmlns="http://www.w3.org/2000/svg" xmlns:xlink="http://www.w3.org/1999/xlink" xml:space="preserve" xmlns:serif="http://www.serif.com/" style="fill-rule:evenodd;clip-rule:evenodd;stroke-linejoin:round;stroke-miterlimit:2;"><rect id="Artboard1" x="0" y="0" width="400" height="400" style="fill:none;"/><path d="M375,112.5c0,-48.293 -39.207,-87.5 -87.5,-87.5l-175,0c-48.293,0 -87.5,39.207 -87.5,87.5l0,175c0,48.293 39.207,87.5 87.5,87.5l175,0c48.293,0 87.5,-39.207 87.5,-87.5l0,-175Zm-242.263,46.107l-53.704,0l0,160.755l53.704,0l-0,-160.755Zm81.818,22.994c10.282,-17.997 30.023,-26.713 49.839,-26.848c44.208,-0.3 59.642,24.479 59.765,75.871c0.075,31.494 -0,60.31 -0,88.738l-53.704,0c0,-28.932 -0.016,-58.075 0,-88.738c0.014,-25.583 -13.371,-33.381 -25.032,-33.353c-11.027,0.027 -26.348,5.938 -30.868,31.955l0,90.136l-53.703,0l-0,-160.755l53.703,0l0,22.994Zm-108.67,-100.963c16.6,-0 30.077,12.794 30.077,28.554c0,15.759 -13.477,28.554 -30.077,28.554c-16.6,-0 -30.077,-12.795 -30.077,-28.554c-0,-15.76 13.477,-28.554 30.077,-28.554Z" style="fill:#fff;"/></svg>